<svg width="256" height="82" viewBox="0 0 256 82" fill="none" xmlns="http://www.w3.org/2000/svg">
    <path fill-rule="evenodd" clip-rule="evenodd" d="M46.4161 4.57433H24.9111V0.129883H46.4161V4.57433ZM59.07 64.816C63.8027 59.358 66.6667 52.2357 66.6667 44.4444C66.6667 27.2622 52.7378 13.3333 35.5556 13.3333C18.3734 13.3333 4.44444 27.2622 4.44444 44.4444C4.44444 61.6266 18.3734 75.5555 35.5556 75.5555C43.3469 75.5555 50.4692 72.6915 55.9273 67.9587L33.9844 46.0158L37.1271 42.8731L59.07 64.816ZM62.2197 67.9657C67.7533 61.6975 71.1111 53.4631 71.1111 44.4444C71.1111 24.8076 55.1923 8.88885 35.5556 8.88885C15.9188 8.88885 0 24.8076 0 44.4444C0 64.0812 15.9188 80 35.5556 80C44.5743 80 52.8088 76.6421 59.077 71.1084L67.3177 79.3491L70.4604 76.2064L62.2197 67.9657ZM162.222 75.5556C179.404 75.5556 193.333 61.6267 193.333 44.4445C193.333 36.6532 190.469 29.5308 185.737 24.0727L141.851 67.9588C147.309 72.6915 154.431 75.5556 162.222 75.5556ZM162.222 13.3334C170.014 13.3334 177.136 16.1974 182.594 20.9301L138.708 64.8161C133.975 59.3581 131.111 52.2357 131.111 44.4445C131.111 27.2623 145.04 13.3334 162.222 13.3334ZM162.222 80C181.859 80 197.778 64.0813 197.778 44.4445C197.778 24.8077 181.859 8.88892 162.222 8.88892C142.586 8.88892 126.667 24.8077 126.667 44.4445C126.667 64.0813 142.586 80 162.222 80ZM115.556 35.5555C115.556 43.2032 112.044 50.0305 106.544 54.5128L128.238 76.2064L125.095 79.3491L102.784 57.038C99.3155 58.9268 95.3386 60 91.1111 60V55.5555C102.157 55.5555 111.111 46.6012 111.111 35.5555C111.111 24.5098 102.157 15.5555 91.1111 15.5555V11.1111C104.611 11.1111 115.556 22.0552 115.556 35.5555ZM86.6666 77.7777V11.1111H82.2222V77.7777H86.6666ZM211.111 20.6731V80H206.667V13.3333H208.889L210.738 12.1006L251.111 72.6604V13.3333H255.556V80H253.333L251.484 81.2327L211.111 20.6731Z" fill="#ADB5BD"/>
</svg>
