<svg width="48" height="48" viewBox="0 0 48 48" fill="none" xmlns="http://www.w3.org/2000/svg">
    <path fill-rule="evenodd" clip-rule="evenodd" d="M32 8.82849V24.1716L36 28.1716V4.00006C36 3.19113 35.5127 2.46186 34.7654 2.1523C34.018 1.84274 33.1578 2.01385 32.5858 2.58584L21.5 13.6716L24.3285 16.5L32 8.82849ZM11.1716 14.0001H8C6.89543 14.0001 6 14.8955 6 16.0001V32.0001C6 33.1046 6.89543 34.0001 8 34.0001H21.1716L32.5858 45.4143C33.1578 45.9863 34.018 46.1574 34.7654 45.8478C35.5127 45.5383 36 44.809 36 44.0001V38.8284L42.5858 45.4142C43.3668 46.1953 44.6331 46.1953 45.4142 45.4142C46.1952 44.6332 46.1952 43.3668 45.4142 42.5858L5.41421 2.58579C4.63317 1.80474 3.36684 1.80474 2.58579 2.58579C1.80474 3.36683 1.80474 4.63316 2.58579 5.41421L11.1716 14.0001ZM32 34.8284L15.1716 18.0001H10V30.0001H22C22.5304 30.0001 23.0391 30.2108 23.4142 30.5858L32 39.1716V34.8284Z" fill="#ADB5BD"/>
</svg>
