<svg width="48" height="48" viewBox="0 0 48 48" fill="none" xmlns="http://www.w3.org/2000/svg">
    <path fill-rule="evenodd" clip-rule="evenodd" d="M42.3333 24C42.3333 34.1252 34.1252 42.3333 24 42.3333C13.8748 42.3333 5.66667 34.1252 5.66667 24C5.66667 13.8748 13.8748 5.66667 24 5.66667C34.1252 5.66667 42.3333 13.8748 42.3333 24ZM46 24C46 36.1503 36.1503 46 24 46C11.8497 46 2 36.1503 2 24C2 11.8497 11.8497 2 24 2C36.1503 2 46 11.8497 46 24ZM39.5833 24C39.5833 32.6064 32.6064 39.5833 24 39.5833V8.41667C32.6064 8.41667 39.5833 15.3936 39.5833 24Z" fill="#ADB5BD"/>
</svg>

