<svg width="48" height="48" viewBox="0 0 48 48" fill="none" xmlns="http://www.w3.org/2000/svg">
    <path fill-rule="evenodd" clip-rule="evenodd" d="M24 2C22.8954 2 22 2.89543 22 4V11.2727C22 12.3773 22.8954 13.2727 24 13.2727C25.1046 13.2727 26 12.3773 26 11.2727V6.10986C34.9999 7.10475 42 14.7349 42 24C42 33.9411 33.9411 42 24 42C14.0589 42 6 33.9411 6 24C6 19.0561 7.99056 14.5809 11.2186 11.3258C11.9964 10.5414 11.9911 9.27513 11.2068 8.49735C10.4225 7.71957 9.15618 7.72486 8.37841 8.50917C4.43768 12.483 2 17.9588 2 24C2 36.1503 11.8497 46 24 46C36.1503 46 46 36.1503 46 24C46 11.8497 36.1503 2 24 2ZM15.4142 12.5858C14.6331 11.8047 13.3668 11.8048 12.5858 12.5858C11.8047 13.3669 11.8048 14.6332 12.5858 15.4142L22.5862 25.4142C23.3672 26.1953 24.6336 26.1952 25.4146 25.4142C26.1956 24.6331 26.1956 23.3668 25.4146 22.5857L15.4142 12.5858Z" fill="#ADB5BD"/>
</svg>
