<svg width="48" height="48" viewBox="0 0 48 48" fill="none" xmlns="http://www.w3.org/2000/svg">
    <path fill-rule="evenodd" clip-rule="evenodd" d="M46 24C46 13.2157 38.2405 4.24378 28 2.36275V0.127197H20V2.36275C9.75953 4.24378 2 13.2157 2 24C2 36.1503 11.8497 46 24 46C36.1503 46 46 36.1503 46 24ZM42 24C42 33.9411 33.9411 42 24 42C14.0589 42 6 33.9411 6 24C6 14.0589 14.0589 6 24 6C33.9411 6 42 14.0589 42 24ZM26.0007 10C26.0007 8.89546 25.1053 8.00001 24.0007 8C22.8961 7.99999 22.0007 8.8954 22.0007 9.99997L22.0005 24C22.0005 25.1045 22.8959 26 24.0005 26C25.105 26 26.0005 25.1046 26.0005 24L26.0007 10ZM41.4141 2.58569L38.5856 5.41412L44.2425 11.071L47.0709 8.24255L41.4141 2.58569Z" fill="#ADB5BD"/>
</svg>
