<svg width="48" height="48" viewBox="0 0 48 48" fill="none" xmlns="http://www.w3.org/2000/svg">
    <path fill-rule="evenodd" clip-rule="evenodd" d="M36 4.00006C36 3.19113 35.5127 2.46186 34.7654 2.1523C34.018 1.84274 33.1578 2.01385 32.5858 2.58584L21.1716 14.0001H8C6.89543 14.0001 6 14.8955 6 16.0001V32.0001C6 33.1046 6.89543 34.0001 8 34.0001H21.1716L32.5858 45.4143C33.1578 45.9863 34.018 46.1574 34.7654 45.8478C35.5127 45.5383 36 44.809 36 44.0001V4.00006ZM23.4142 17.4143L32 8.82849V39.1716L23.4142 30.5858C23.0391 30.2108 22.5304 30.0001 22 30.0001H10V18.0001H22C22.5304 18.0001 23.0391 17.7893 23.4142 17.4143ZM41.697 14.942C41.1127 14.0046 39.8791 13.7185 38.9417 14.3028C38.0044 14.8871 37.7182 16.1207 38.3026 17.0581C39.5576 19.0712 40.283 21.4479 40.283 24C40.283 26.5522 39.5576 28.9288 38.3026 30.942C37.7182 31.8793 38.0044 33.1129 38.9417 33.6972C39.8791 34.2816 41.1127 33.9954 41.697 33.0581C43.3363 30.4285 44.283 27.3218 44.283 24C44.283 20.6783 43.3363 17.5716 41.697 14.942Z" fill="#ADB5BD"/>
</svg>
